<?xml version="1.0" standalone="no"?>
<!DOCTYPE svg PUBLIC "-//W3C//DTD SVG 20010904//EN"
 "http://www.w3.org/TR/2001/REC-SVG-20010904/DTD/svg10.dtd">
<svg version="1.0" xmlns="http://www.w3.org/2000/svg"
 width="896.000000pt" height="896.000000pt" viewBox="0 0 896.000000 896.000000"
 preserveAspectRatio="xMidYMid meet">
<metadata>
Created by potrace 1.14, written by Peter Selinger 2001-2017
</metadata>
<g transform="translate(0.000000,896.000000) scale(0.100000,-0.100000)"
fill="#000000" stroke="none">
<path d="M1470 8953 c-139 -21 -299 -73 -405 -133 -128 -72 -270 -194 -343
-294 -20 -28 -39 -53 -42 -56 -9 -7 -70 -116 -91 -160 -34 -73 -74 -187 -83
-240 -3 -14 -5 -25 -6 -25 -11 0 -14 -543 -17 -3518 -2 -2423 0 -3467 8 -3467
5 0 8 -4 5 -9 -9 -14 20 -141 55 -245 55 -166 161 -339 285 -468 150 -155 347
-267 549 -313 17 -4 39 -10 50 -13 11 -4 1564 -8 3451 -9 3365 -3 3432 -3
3437 16 2 10 1 25 -3 32 -5 7 -4 23 1 36 5 14 5 23 -1 23 -5 0 -6 9 -1 22 4
13 5 35 0 50 -4 16 -4 28 1 28 5 0 5 13 0 30 -5 17 -5 30 0 30 5 0 5 12 1 28
-5 15 -5 37 0 49 5 13 4 25 -1 28 -6 4 -7 13 -1 24 6 10 6 23 1 31 -5 8 -5 21
0 30 5 9 4 23 -1 32 -6 10 -6 19 0 23 6 3 7 13 4 21 -3 9 -6 25 -7 37 l-1 22
-1195 2 c-657 0 -1199 2 -1205 3 -5 1 -14 1 -20 0 -25 -6 -2537 -4 -2541 2 -3
4 -15 4 -27 0 -31 -10 -1741 -7 -1797 3 -25 5 -47 9 -50 9 -3 1 -36 16 -73 34
-148 73 -274 242 -316 424 -18 77 -21 202 -6 271 20 95 89 220 161 290 72 71
188 133 281 152 15 3 1548 6 3405 6 2387 0 3380 4 3384 11 10 16 10 78 1 78
-5 0 -5 5 -2 11 9 14 9 134 1 148 -4 6 -3 11 3 11 6 0 6 11 1 30 -5 17 -5 30
0 30 5 0 5 13 0 30 -5 17 -5 32 0 35 5 3 5 16 0 30 -6 15 -6 25 0 25 5 0 5 12
0 30 -5 17 -5 30 0 30 5 0 5 13 0 30 -5 17 -5 30 0 30 5 0 5 12 1 28 -5 15 -5
37 0 49 5 13 4 25 -1 28 -6 4 -7 13 -1 24 5 9 6 23 2 29 -4 7 -4 35 -1 62 4
28 3 50 -1 50 -4 0 -4 14 1 30 5 17 5 30 0 30 -5 0 -7 6 -5 13 9 21 11 107 4
107 -4 0 -4 14 1 30 5 17 5 30 0 30 -5 0 -5 13 0 30 5 17 5 30 0 30 -5 0 -7 6
-5 12 9 22 11 108 4 108 -4 0 -4 14 1 30 5 17 5 30 0 30 -5 0 -5 13 0 30 5 19
5 30 -1 30 -6 0 -7 5 -4 11 9 14 9 134 1 148 -4 6 -3 11 3 11 6 0 6 11 1 30
-5 17 -5 30 0 30 5 0 5 13 0 30 -5 17 -5 32 0 35 5 3 5 16 0 30 -6 15 -6 25 0
25 5 0 5 12 0 30 -5 17 -5 30 0 30 5 0 5 13 0 30 -5 17 -5 30 0 30 5 0 5 12 1
28 -5 15 -5 37 0 49 5 13 4 25 -1 28 -6 4 -7 13 -1 24 5 9 6 23 2 30 -5 7 -5
30 -1 51 4 21 4 44 -1 51 -4 7 -3 23 2 36 5 14 5 23 -1 23 -5 0 -6 9 -1 22 4
13 5 35 0 50 -4 16 -4 28 1 28 5 0 5 13 0 30 -5 17 -5 30 0 30 5 0 5 13 0 30
-5 17 -5 32 0 35 5 3 5 16 0 30 -6 15 -6 25 0 25 5 0 5 12 0 30 -5 17 -5 30 0
30 5 0 5 13 0 30 -5 17 -5 30 0 30 5 0 5 13 0 30 -5 17 -6 30 -2 30 4 0 7 25
7 55 0 30 -3 55 -7 55 -4 0 -5 6 -3 13 9 21 11 107 4 107 -4 0 -4 14 1 30 5
17 5 30 0 30 -5 0 -5 13 0 30 5 17 5 30 0 30 -5 0 -7 6 -5 13 9 21 11 107 4
107 -4 0 -4 14 1 30 5 17 5 30 0 30 -5 0 -5 13 0 30 5 17 5 30 0 30 -5 0 -5
13 0 30 5 17 5 30 0 30 -4 0 -6 8 -4 18 7 29 9 152 3 152 -4 0 -3 18 1 40 4
22 3 43 -1 46 -5 3 -5 12 0 22 5 9 5 26 0 39 -5 13 -5 23 -1 23 4 0 7 34 7 75
0 41 -3 75 -6 75 -4 0 -3 18 1 40 4 22 3 43 -1 46 -5 3 -5 12 0 22 5 9 5 26 0
39 -5 13 -5 23 -1 23 8 0 7 98 -1 106 -3 4 -2 17 3 30 5 13 6 24 1 24 -5 0 -5
16 -1 35 4 20 4 38 -1 41 -5 3 -5 12 0 23 6 10 6 23 1 31 -5 8 -5 21 0 30 5 9
5 22 0 30 -5 8 -5 21 0 30 5 9 5 22 0 30 -4 7 -4 24 0 36 6 14 5 26 0 29 -6 4
-7 13 -1 24 6 10 6 23 1 31 -5 8 -5 21 0 30 5 9 5 22 0 30 -5 8 -5 21 0 30 5
9 5 22 0 30 -4 7 -4 24 0 36 6 14 5 26 0 29 -6 4 -7 13 -1 24 6 10 6 23 1 31
-5 8 -5 21 0 30 5 9 5 22 0 30 -5 8 -5 21 0 30 5 9 5 22 0 30 -4 7 -4 24 0 36
6 14 5 26 0 29 -6 4 -7 13 -1 24 6 10 6 23 1 31 -5 8 -5 21 0 30 5 9 5 22 0
30 -5 8 -5 21 0 30 5 9 5 22 0 30 -4 7 -6 18 -4 24 8 20 10 106 3 106 -4 0 -5
8 -3 18 7 29 9 152 3 152 -4 0 -3 18 1 40 4 22 3 43 -1 46 -5 3 -5 12 0 22 5
9 5 26 0 39 -5 13 -5 23 -1 23 4 0 7 34 7 75 0 41 -3 75 -6 75 -4 0 -3 18 1
40 4 22 3 43 -1 46 -5 3 -5 12 0 22 5 9 5 26 0 39 -5 13 -5 23 -1 23 8 0 7 88
-1 97 -3 3 -2 16 3 29 6 15 6 24 0 24 -5 0 -6 9 -1 22 4 13 5 35 0 50 -4 16
-4 28 1 28 5 0 5 13 0 30 -5 17 -5 30 0 30 5 0 5 13 0 30 -5 17 -5 32 0 35 5
3 5 16 0 30 -6 15 -6 25 0 25 5 0 5 12 0 30 -5 17 -5 30 0 30 5 0 5 13 0 30
-5 17 -5 30 0 30 5 0 5 13 0 30 -5 17 -6 30 -2 30 4 0 7 25 7 55 0 30 -3 55
-7 55 -4 0 -5 6 -3 13 9 21 11 107 4 107 -4 0 -4 14 1 30 5 17 5 30 0 30 -5 0
-5 13 0 30 5 17 5 30 0 30 -5 0 -7 6 -5 13 9 21 11 107 4 107 -4 0 -4 14 1 30
5 17 5 30 0 30 -5 0 -5 13 0 30 5 17 5 30 0 30 -5 0 -5 13 0 30 5 17 5 30 1
30 -4 0 -6 14 -3 30 l4 30 -3413 -1 c-1878 -1 -3425 -4 -3439 -6z m187 -596
c4 -4 7 -911 7 -2015 l1 -2007 290 -3 290 -2 30 25 c27 24 126 111 179 160 12
11 55 49 95 85 41 36 88 79 106 95 28 26 130 117 188 167 43 38 171 154 185
167 26 26 107 91 113 91 3 0 17 -10 31 -22 13 -13 57 -52 98 -88 40 -36 85
-76 99 -88 14 -13 53 -47 85 -75 33 -29 72 -63 87 -77 29 -26 129 -116 165
-147 12 -10 54 -48 95 -84 41 -37 89 -80 107 -95 19 -16 55 -48 80 -71 l47
-43 293 0 c271 0 292 1 293 18 0 9 0 916 1 2015 0 1098 3 1997 7 1998 40 5
974 2 978 -4 2 -4 9 -4 16 0 14 9 1898 10 1903 1 3 -4 15 -4 27 1 17 6 119 7
169 2 4 -1 7 -1344 6 -2986 l0 -2985 -3086 -1 c-1698 0 -3105 -2 -3127 -5
-125 -12 -317 -70 -412 -124 l-31 -18 0 2822 c0 2257 2 2834 13 2878 28 124
112 252 208 318 49 34 137 82 137 74 0 -2 11 1 25 6 14 5 46 12 72 16 27 3 49
7 50 8 6 5 74 -1 80 -7z m2373 -1609 c0 -1380 -2 -1608 -14 -1601 -13 7 -105
88 -182 158 -18 17 -56 50 -85 75 -29 25 -71 62 -93 83 -46 42 -49 44 -161
142 -44 39 -85 75 -91 80 -6 6 -44 39 -85 75 -40 36 -84 75 -97 88 -12 12 -28
22 -34 22 -6 0 -8 3 -5 7 4 3 -7 15 -25 25 l-31 20 -22 -24 c-12 -13 -51 -48
-86 -80 -35 -31 -76 -67 -90 -80 -47 -42 -154 -137 -175 -155 -12 -10 -59 -53
-105 -95 -46 -42 -93 -85 -105 -95 -90 -79 -173 -153 -201 -180 -19 -18 -38
-33 -42 -33 -5 0 -11 -7 -15 -15 -3 -8 -11 -15 -18 -15 -11 0 -13 302 -12
1603 1 881 2 1602 3 1602 0 1 399 1 886 1 l885 0 0 -1608z"/>
</g>
</svg>
